<?xml version="1.0" standalone="no"?>
<!DOCTYPE svg PUBLIC "-//W3C//DTD SVG 20010904//EN"
 "http://www.w3.org/TR/2001/REC-SVG-20010904/DTD/svg10.dtd">
<svg version="1.0" xmlns="http://www.w3.org/2000/svg"
 width="300.000000pt" height="300.000000pt" viewBox="0 0 300.000000 300.000000"
 preserveAspectRatio="xMidYMid meet">
<metadata>
Created by potrace 1.10, written by Peter Selinger 2001-2011
</metadata>
<g transform="translate(0.000000,300.000000) scale(0.100000,-0.100000)"
fill="#000000" stroke="none">
<path d="M2028 2284 c-16 -8 -28 -20 -28 -27 0 -39 74 -425 86 -448 23 -45 56
-61 123 -60 100 1 143 31 117 82 -10 21 -19 24 -63 24 -29 0 -55 4 -59 8 -7 6
-32 135 -33 168 -1 12 13 19 51 25 56 10 66 22 54 70 -7 27 -36 31 -93 15
l-32 -9 -12 71 c-16 96 -45 117 -111 81z m52 -14 c0 -5 7 -7 15 -4 11 5 15 -1
15 -20 0 -31 -1 -25 15 -78 l13 -43 61 3 c61 3 61 3 60 -25 0 -24 -2 -25 -8
-9 -7 19 -8 19 -13 -2 -5 -16 -14 -22 -35 -22 -45 0 -56 -13 -50 -56 3 -22 9
-62 13 -91 8 -65 27 -83 90 -86 46 -2 49 -4 52 -31 3 -20 0 -26 -8 -21 -7 4
-16 2 -20 -5 -10 -16 -132 -18 -138 -2 -2 7 -10 12 -17 12 -20 0 -35 58 -75
287 -17 95 -30 175 -30 178 0 6 38 23 53 24 4 1 7 -3 7 -9z"/>
<path d="M2178 2093 c6 -2 18 -2 25 0 6 3 1 5 -13 5 -14 0 -19 -2 -12 -5z"/>
<path d="M2072 2030 c0 -19 2 -27 5 -17 2 9 2 25 0 35 -3 9 -5 1 -5 -18z"/>
<path d="M1842 2280 c-25 -10 -42 -46 -34 -70 14 -42 78 -54 112 -20 50 50 -9
118 -78 90z m51 -29 c-2 -6 2 -11 7 -11 15 0 12 -19 -5 -36 -24 -24 -59 -14
-63 19 -3 21 2 29 20 36 27 11 44 8 41 -8z"/>
<path d="M1625 2266 c-19 -14 -19 -16 -2 -123 10 -59 21 -119 24 -132 l6 -25
-28 22 c-32 26 -92 29 -133 8 -15 -8 -38 -33 -51 -56 -21 -38 -23 -51 -18
-120 6 -90 31 -147 82 -186 60 -46 156 -29 189 34 9 16 15 21 16 11 0 -28 46
-41 85 -24 19 7 35 20 35 27 1 33 -95 554 -103 566 -13 16 -79 15 -102 -2z
m112 -136 c12 -69 33 -188 47 -265 19 -105 22 -141 13 -147 -9 -6 -9 -8 1 -8
7 0 10 -5 7 -10 -10 -16 -69 -7 -83 13 -13 17 -16 16 -51 -22 -33 -36 -43 -41
-82 -41 -46 0 -94 24 -83 41 3 5 0 8 -7 7 -16 -4 -48 58 -49 94 0 15 -6 39
-12 54 -10 22 -10 28 0 32 6 2 12 14 12 27 0 29 22 72 46 90 26 19 94 19 122
-1 32 -22 54 -11 47 23 -44 236 -43 246 20 241 l30 -3 22 -125z"/>
<path d="M1557 1929 c-23 -17 -27 -28 -27 -73 0 -73 31 -120 83 -124 29 -3 42
2 62 22 23 23 25 32 23 90 -2 35 -6 62 -9 60 -4 -2 -14 7 -24 19 -23 31 -74
34 -108 6z m92 -18 c20 -20 38 -100 28 -125 -3 -8 -17 -22 -30 -31 -50 -32
-97 18 -97 103 0 64 57 95 99 53z"/>
<path d="M1762 1875 c0 -16 2 -22 5 -12 2 9 2 23 0 30 -3 6 -5 -1 -5 -18z"/>
<path d="M1771 1785 c1 -19 18 -51 18 -35 0 8 -4 22 -9 30 -5 8 -9 11 -9 5z"/>
<path d="M2191 2244 c0 -11 3 -14 6 -6 3 7 2 16 -1 19 -3 4 -6 -2 -5 -13z"/>
<path d="M1203 2198 c-12 -6 -24 -16 -27 -23 -8 -21 93 -568 106 -577 42 -26
122 9 112 49 -2 10 -25 135 -50 278 -33 190 -49 263 -61 273 -20 14 -50 15
-80 0z m78 -45 c5 -15 8 -35 6 -45 -3 -9 -2 -18 3 -20 4 -2 17 -59 29 -128 62
-357 62 -350 14 -350 -36 0 -56 43 -73 155 -7 44 -14 89 -16 100 -27 139 -52
303 -48 308 2 2 19 4 39 5 30 2 37 -1 46 -25z"/>
<path d="M1271 1784 c0 -11 3 -14 6 -6 3 7 2 16 -1 19 -3 4 -6 -2 -5 -13z"/>
<path d="M2428 2180 c-20 -11 -50 -36 -65 -57 -25 -33 -28 -44 -27 -117 0 -96
16 -133 75 -175 79 -58 182 -49 249 20 48 49 62 99 50 171 -14 89 -39 128
-107 162 -44 22 -129 20 -175 -4z m198 -35 c40 -31 53 -57 64 -135 8 -61 -11
-130 -36 -130 -8 0 -13 -6 -11 -12 1 -8 -6 -12 -16 -10 -10 2 -16 -2 -15 -10
2 -6 -16 -19 -39 -27 -58 -21 -125 -3 -172 44 -57 59 -69 172 -25 240 14 22
23 32 20 22 -3 -11 -2 -15 4 -12 6 3 10 12 10 19 0 12 26 29 60 39 8 3 39 3
68 2 39 -3 62 -11 88 -30z"/>
<path d="M2465 2088 c-25 -20 -27 -25 -23 -84 5 -78 30 -110 88 -116 21 -2 36
0 34 4 -3 5 -1 8 5 8 6 0 18 14 26 31 24 45 5 131 -35 159 -36 26 -61 25 -95
-2z m93 -23 c24 -30 36 -99 22 -125 -28 -52 -90 -44 -110 14 -17 52 -15 94 5
116 25 27 59 25 83 -5z"/>
<path d="M605 2076 c-36 -15 -55 -54 -111 -225 -2 -8 -32 21 -74 72 -38 46
-77 87 -86 91 -44 17 -106 1 -118 -30 -5 -14 77 -513 90 -549 8 -19 83 -20
109 -1 18 13 18 18 -9 172 -16 88 -32 166 -38 174 -12 19 -4 -66 17 -180 27
-142 27 -153 10 -146 -9 3 -13 2 -10 -3 3 -5 -3 -11 -12 -13 -22 -4 -63 38
-63 65 0 19 -49 299 -70 403 -6 28 -8 58 -4 67 7 21 47 32 71 21 10 -4 23 -8
28 -9 6 0 9 -7 7 -14 -1 -7 2 -10 8 -6 5 3 10 -1 10 -10 0 -9 4 -14 9 -10 10
6 37 -34 33 -47 -1 -5 2 -7 6 -5 5 1 21 -13 36 -30 15 -18 34 -33 42 -33 14 0
64 96 64 120 0 6 10 31 21 56 15 30 26 43 36 40 8 -3 11 -1 8 4 -10 16 45 24
60 9 13 -13 31 -97 69 -329 4 -19 10 -55 15 -80 17 -81 19 -105 11 -125 -5
-11 -9 -16 -9 -11 -1 5 -8 2 -18 -5 -12 -10 -17 -11 -20 -2 -2 7 -10 10 -17 7
-14 -5 -25 39 -46 191 -14 98 -25 127 -46 123 -9 -2 -23 -21 -31 -43 -27 -73
-38 -100 -46 -112 -12 -20 -38 -15 -44 7 -3 11 -9 17 -14 14 -5 -3 -9 -1 -9 3
0 12 -80 97 -86 91 -2 -3 19 -36 49 -74 37 -49 60 -70 78 -72 33 -4 42 8 77
103 l29 80 7 -45 c23 -145 50 -277 59 -289 8 -9 24 -11 50 -8 76 10 75 3 23
304 -39 221 -51 271 -68 286 -24 20 -42 21 -83 3z"/>
<path d="M1856 2071 c-16 -17 -15 -28 13 -186 17 -102 34 -171 42 -176 23 -14
76 -10 93 7 9 8 16 25 16 36 0 41 -52 313 -62 326 -16 19 -82 15 -102 -7z m97
-35 c19 -101 47 -273 47 -282 0 -6 -12 -16 -26 -22 -47 -22 -57 -5 -82 135
-33 184 -33 185 -22 178 6 -3 10 1 10 9 0 11 10 15 34 14 30 -1 35 -5 39 -32z"/>
<path d="M1941 1964 c0 -11 3 -14 6 -6 3 7 2 16 -1 19 -3 4 -6 -2 -5 -13z"/>
<path d="M1890 1956 c0 -8 4 -17 9 -20 5 -4 7 3 4 14 -6 23 -13 26 -13 6z"/>
<path d="M1962 1840 c0 -14 2 -19 5 -12 2 6 2 18 0 25 -3 6 -5 1 -5 -13z"/>
<path d="M883 1906 c-60 -29 -76 -60 -49 -101 20 -31 20 -31 80 0 60 30 80 31
106 5 27 -27 25 -38 -7 -46 -124 -27 -173 -64 -173 -131 0 -123 112 -163 202
-73 21 21 38 32 38 24 0 -20 38 -36 70 -29 52 11 55 23 30 157 -32 180 -57
211 -175 216 -58 2 -79 -1 -122 -22z m189 -7 c38 -17 73 -76 73 -124 0 -24 3
-41 6 -39 3 2 12 -29 19 -68 10 -59 10 -72 -1 -79 -22 -14 -69 -10 -75 6 -8
19 -40 19 -48 0 -3 -8 -12 -12 -20 -9 -8 3 -13 0 -13 -8 1 -7 -2 -14 -6 -15
-4 -1 -14 -9 -22 -17 -17 -17 -83 -12 -103 8 -16 15 -26 77 -19 108 7 26 101
78 140 78 13 0 31 6 41 13 18 13 18 15 2 49 -14 28 -26 38 -57 46 -21 5 -36 6
-33 1 5 -9 -15 -13 -48 -11 -10 1 -17 -4 -15 -10 1 -7 -8 -14 -20 -16 -15 -2
-24 2 -24 12 -1 9 -2 22 -3 29 -1 6 5 13 12 13 6 1 17 2 24 3 6 0 8 4 4 8 -24
24 139 44 186 22z"/>
<path d="M968 1699 c-35 -39 -35 -58 -3 -93 14 -15 25 -23 25 -17 0 5 13 12
29 16 22 5 31 15 41 46 17 50 6 73 -36 77 -22 2 -36 -5 -56 -29z m82 -14 c0
-31 -43 -77 -64 -69 -21 8 -30 42 -16 60 7 8 27 18 44 23 17 5 32 10 34 10 1
1 2 -10 2 -24z"/>
<path d="M1130 1710 c0 -5 5 -10 10 -10 6 0 10 5 10 10 0 6 -4 10 -10 10 -5 0
-10 -4 -10 -10z"/>
<path d="M515 1680 c-3 -5 -1 -10 4 -10 6 0 11 5 11 10 0 6 -2 10 -4 10 -3 0
-8 -4 -11 -10z"/>
<path d="M2481 1454 c-27 -34 -26 -40 4 -69 30 -30 54 -31 89 -4 32 25 34 62
4 83 -34 24 -73 20 -97 -10z m80 -4 c10 -6 19 -18 18 -28 0 -14 -2 -14 -10 3
-8 17 -9 16 -6 -7 2 -15 0 -25 -4 -22 -5 3 -9 0 -9 -5 0 -6 -7 -11 -15 -11 -8
0 -15 4 -15 10 0 5 -7 7 -15 4 -11 -5 -15 1 -15 24 0 28 8 36 43 41 5 0 17 -4
28 -9z"/>
<path d="M2065 1430 c-46 -18 -45 -22 6 -309 26 -151 50 -280 53 -288 7 -18
77 -17 104 3 23 16 24 27 7 94 -2 8 4 25 15 38 l19 23 67 -71 c37 -38 76 -70
86 -70 24 0 68 43 68 67 0 10 -34 52 -75 93 l-75 75 40 54 c45 60 48 71 22 94
-41 37 -62 27 -126 -60 -34 -45 -63 -82 -66 -83 -3 0 -17 73 -32 162 -31 188
-43 207 -113 178z m70 -49 c3 -14 7 -37 10 -51 2 -14 9 -54 15 -90 25 -150 48
-199 72 -156 5 9 14 13 20 10 6 -4 8 -3 5 3 -8 13 22 55 34 48 5 -3 6 1 3 9
-4 9 1 18 10 22 9 3 14 10 11 14 -6 10 27 37 43 34 6 -1 17 -2 22 -3 16 -2 3
-51 -18 -75 -38 -42 -43 -62 -22 -89 11 -13 17 -27 15 -31 -3 -3 -2 -4 2 -1
12 9 83 -68 83 -90 0 -16 2 -17 10 -5 8 12 10 12 16 -3 6 -17 -20 -57 -37 -57
-4 0 -39 31 -77 68 -50 51 -75 68 -93 67 -13 -1 -24 -6 -24 -11 0 -5 -4 -16
-10 -24 -5 -8 -9 -39 -9 -70 -1 -54 -1 -55 -33 -58 -23 -2 -34 2 -41 15 -5 10
-19 83 -32 163 -12 80 -26 154 -30 165 -9 22 -30 167 -30 202 0 20 5 23 40 21
33 -1 40 -5 45 -27z"/>
<path d="M2435 900 c-3 -5 -1 -10 4 -10 6 0 11 5 11 10 0 6 -2 10 -4 10 -3 0
-8 -4 -11 -10z"/>
<path d="M2150 860 c0 -5 5 -10 11 -10 5 0 7 5 4 10 -3 6 -8 10 -11 10 -2 0
-4 -4 -4 -10z"/>
<path d="M1461 1333 c-20 -18 -20 -20 -5 -78 19 -72 33 -90 64 -80 22 7 22 11
17 83 -7 92 -29 114 -76 75z m34 -22 c11 17 23 -14 24 -58 1 -25 -2 -31 -14
-27 -11 5 -14 1 -9 -12 5 -17 4 -17 -5 -2 -14 21 -27 119 -13 99 8 -11 11 -11
17 0z"/>
<path d="M2534 1280 c-12 -5 -25 -14 -29 -20 -4 -6 5 -84 20 -173 32 -188 42
-206 101 -191 20 5 42 16 47 25 15 23 -40 339 -61 357 -18 14 -47 15 -78 2z
m61 -18 c12 -9 12 -6 41 -175 27 -151 24 -172 -26 -172 -18 0 -26 7 -32 25
-17 62 -27 110 -38 180 -6 41 -13 85 -16 98 -3 15 0 22 11 22 9 0 14 4 11 9
-10 16 31 27 49 13z"/>
<path d="M1051 1251 c-47 -13 -47 -23 4 -312 27 -151 53 -280 58 -286 15 -20
81 -16 102 6 16 19 16 25 1 114 -21 125 -20 143 6 161 29 20 41 20 67 -1 16
-14 26 -43 41 -127 10 -60 25 -113 32 -118 16 -11 87 -3 101 11 12 12 -6 163
-29 242 -16 54 -75 113 -123 124 -39 8 -102 -20 -116 -52 -5 -13 -12 -23 -15
-23 -3 0 -14 53 -23 118 -10 65 -22 123 -25 129 -10 15 -52 23 -81 14z m80
-111 c10 -47 18 -97 18 -111 1 -14 7 -34 15 -44 13 -18 15 -17 48 17 37 40 83
57 101 39 6 -6 19 -11 29 -11 10 0 18 -7 18 -16 0 -8 5 -12 11 -9 6 4 13 -2
16 -14 3 -12 9 -21 13 -21 9 0 41 -154 46 -218 1 -23 -1 -40 -6 -37 -5 3 -11
1 -14 -4 -3 -4 -17 -8 -30 -8 -26 0 -35 24 -52 137 -10 74 -30 105 -74 120
-38 13 -41 12 -66 -15 -25 -27 -26 -32 -20 -96 4 -38 11 -83 17 -101 14 -51
12 -81 -6 -74 -8 3 -15 1 -15 -4 0 -6 -11 -10 -24 -10 -23 0 -45 34 -44 70 0
8 -9 67 -21 130 -11 63 -26 142 -32 175 -6 33 -15 79 -20 102 -17 80 -10 93
51 90 22 -2 26 -9 41 -87z"/>
<path d="M723 1180 c-55 -11 -118 -44 -138 -72 -36 -52 -37 -90 -10 -251 30
-179 52 -232 110 -265 75 -43 219 -18 282 50 41 44 54 112 31 163 -9 20 -18
25 -47 25 -55 0 -80 -22 -79 -71 0 -47 -13 -64 -58 -74 -25 -5 -37 -1 -58 17
-23 20 -29 41 -50 162 -16 91 -21 148 -15 162 11 30 42 46 82 42 26 -2 36 -11
53 -43 16 -33 26 -41 53 -43 18 -2 43 4 58 13 22 15 25 22 19 57 -4 22 -14 51
-23 64 -33 51 -129 80 -210 64z m152 -39 c17 -9 30 -23 30 -29 0 -7 5 -16 11
-20 7 -4 15 -23 18 -43 5 -32 3 -38 -17 -43 -42 -11 -55 -6 -74 32 -14 27 -30
40 -58 50 -33 11 -41 10 -70 -8 -40 -25 -53 -60 -44 -120 38 -265 49 -291 127
-292 57 -1 92 26 92 68 0 22 6 37 15 40 8 4 15 10 15 16 0 5 -5 6 -12 2 -7 -4
-8 -3 -4 4 9 14 62 16 71 3 13 -23 13 -92 -2 -106 -8 -8 -12 -15 -8 -15 15 0
-36 -42 -79 -65 -94 -50 -201 -25 -243 57 -24 46 -64 248 -65 328 0 53 21 107
41 102 7 -1 10 2 6 7 -7 12 40 38 92 50 49 12 120 4 158 -18z"/>
<path d="M641 1004 c0 -11 3 -14 6 -6 3 7 2 16 -1 19 -3 4 -6 -2 -5 -13z"/>
<path d="M1748 1146 c-83 -30 -109 -60 -89 -102 16 -36 38 -40 81 -15 49 27
106 28 120 2 15 -29 12 -41 -9 -41 -39 0 -124 -35 -152 -63 -22 -22 -29 -38
-29 -68 0 -46 22 -94 49 -109 51 -27 145 1 171 50 l12 22 14 -21 c18 -25 69
-28 99 -5 19 14 19 15 -2 141 -22 130 -34 158 -86 197 -34 25 -127 32 -179 12z
m142 -15 c15 -4 24 -14 24 -24 -1 -9 2 -17 7 -17 5 0 9 6 9 13 0 6 9 1 20 -13
11 -14 19 -35 17 -47 -2 -12 -1 -20 3 -18 4 2 15 -43 25 -101 15 -90 16 -107
4 -115 -23 -14 -45 -10 -64 11 -24 26 -31 25 -63 -9 -15 -16 -43 -36 -63 -44
-32 -13 -39 -13 -69 3 -37 19 -48 39 -49 86 -1 36 27 73 49 66 8 -3 11 -1 7 4
-9 9 67 43 99 43 12 1 27 8 34 16 17 21 -5 74 -34 80 -48 10 -94 10 -89 1 4
-5 -1 -7 -10 -3 -11 4 -17 1 -17 -7 0 -8 -9 -16 -21 -19 -14 -4 -23 1 -28 16
-10 25 -4 40 10 31 5 -3 8 0 7 8 -6 29 130 57 192 39z"/>
<path d="M1805 939 c3 -4 -2 -12 -10 -19 -10 -8 -15 -27 -13 -51 1 -31 6 -38
27 -42 13 -3 35 0 47 5 36 17 62 89 39 108 -14 12 -97 11 -90 -1z m80 -31
c-19 -64 -63 -89 -85 -48 -9 17 -6 25 14 45 14 14 37 25 51 25 23 0 25 -3 20
-22z"/>
</g>
</svg>
