<?xml version="1.0" standalone="no"?>
<!DOCTYPE svg PUBLIC "-//W3C//DTD SVG 20010904//EN"
 "http://www.w3.org/TR/2001/REC-SVG-20010904/DTD/svg10.dtd">
<svg version="1.0" xmlns="http://www.w3.org/2000/svg"
 width="300.000000pt" height="300.000000pt" viewBox="0 0 300.000000 300.000000"
 preserveAspectRatio="xMidYMid meet">
<metadata>
Created by potrace 1.10, written by Peter Selinger 2001-2011
</metadata>
<g transform="translate(0.000000,300.000000) scale(0.050000,-0.050000)"
fill="#f9f95e" stroke="none">
<path d="M4065 4579 c-73 -29 -73 -55 6 -493 99 -556 121 -593 351 -591 208 2
296 73 225 182 -27 42 -42 47 -130 38 -115 -11 -115 -12 -150 173 -40 209 -42
204 78 224 103 18 105 19 111 93 8 93 -24 109 -158 82 -108 -22 -104 -28 -130
169 -17 136 -79 173 -203 123z"/>
<path d="M3685 4559 c-50 -20 -86 -91 -70 -139 28 -82 172 -109 232 -43 98
108 -19 240 -162 182z"/>
<path d="M3249 4532 c-39 -29 -29 -136 45 -501 l12 -59 -56 44 c-266 210 -531
-220 -352 -571 110 -217 374 -258 484 -77 21 34 38 51 38 37 0 -13 23 -39 51
-58 57 -37 189 3 189 58 1 66 -189 1108 -206 1130 -26 34 -157 32 -205 -3z
m45 -702 c75 -53 87 -244 18 -304 -105 -90 -188 -34 -206 139 -17 170 71 247
188 165z"/>
<path d="M2395 4389 c-30 -17 -55 -34 -55 -39 0 -36 201 -1136 211 -1151 44
-71 265 18 240 97 -5 19 -51 268 -102 554 -105 600 -122 632 -294 539z"/>
<path d="M4860 4363 c-257 -138 -270 -539 -22 -713 326 -229 714 135 554 519
-86 205 -340 297 -532 194z m245 -211 c47 -36 85 -216 56 -270 -53 -99 -175
-93 -218 11 -77 186 31 359 162 259z"/>
<path d="M1214 4157 c-63 -24 -107 -102 -174 -307 -61 -189 -56 -189 -190 -18
-140 179 -177 208 -266 208 -179 0 -181 -19 -70 -646 106 -600 103 -594 255
-552 102 29 104 42 34 403 -34 178 -59 325 -57 328 3 3 55 -60 115 -139 168
-220 224 -211 311 52 65 194 66 193 127 -196 54 -343 116 -412 261 -294 l45
37 -93 538 c-110 631 -120 650 -298 586z m49 -347 c-12 -46 -42 -69 -44 -35
-3 36 19 85 37 85 12 0 15 -21 7 -50z m-561 -102 c29 -16 29 -22 -6 -58 -32
-33 -36 -34 -25 -5 8 20 4 35 -9 35 -12 0 -22 20 -22 45 0 26 7 36 15 23 8
-12 29 -30 47 -40z"/>
<path d="M3713 4151 c-37 -29 29 -561 88 -706 24 -59 160 -64 216 -8 35 35 -7
381 -84 689 -16 63 -150 77 -220 25z"/>
<path d="M1766 3812 c-121 -57 -151 -120 -98 -202 41 -62 47 -62 155 0 113 64
186 65 228 1 38 -58 24 -91 -40 -91 -170 0 -331 -124 -331 -255 0 -246 229
-327 405 -142 45 47 75 67 75 49 0 -71 130 -93 201 -35 l45 36 -45 248 c-65
364 -114 424 -351 435 -116 5 -158 -3 -244 -44z m330 -455 c-8 -84 -99 -156
-146 -117 -50 42 -28 106 50 145 95 47 104 45 96 -28z"/>
<path d="M4963 2914 c-55 -59 -55 -102 1 -153 79 -74 236 -16 236 87 0 108
-156 151 -237 66z"/>
<path d="M4129 2861 c-59 -24 -94 -74 -81 -115 6 -20 52 -269 102 -555 107
-600 89 -551 198 -551 121 0 160 46 134 160 -15 68 -13 96 12 133 42 64 39 65
182 -93 139 -153 178 -167 255 -91 74 75 62 107 -104 274 l-152 153 84 101
c93 110 97 150 18 208 -76 57 -113 34 -235 -146 -60 -87 -114 -159 -120 -159
-7 0 -36 146 -66 325 -63 375 -87 413 -227 356z"/>
<path d="M2911 2673 c-57 -41 19 -320 90 -330 75 -11 94 37 76 190 -20 164
-73 208 -166 140z"/>
<path d="M5067 2560 c-73 -29 -74 -54 -15 -396 68 -391 88 -421 237 -364 79
30 81 59 21 407 -65 377 -91 415 -243 353z"/>
<path d="M2085 2499 c-75 -30 -74 -56 25 -624 105 -598 103 -595 207 -594 144
1 156 29 117 264 -45 266 -44 288 17 327 113 74 168 2 209 -272 33 -224 43
-240 141 -240 157 0 177 191 58 554 -70 210 -383 290 -462 117 -38 -82 -46
-64 -85 190 -45 295 -79 338 -227 278z"/>
<path d="M1403 2349 c-178 -49 -258 -127 -292 -281 -16 -79 78 -626 128 -740
170 -387 923 -118 761 272 -58 139 -252 66 -264 -100 -10 -141 -190 -193 -254
-73 -40 74 -120 575 -101 626 45 118 208 117 270 -3 79 -153 285 -112 263 53
-28 206 -256 317 -511 246z"/>
<path d="M3495 2293 c-165 -62 -216 -121 -178 -205 33 -71 76 -79 165 -29 99
55 195 60 231 10 38 -52 34 -89 -11 -89 -176 0 -362 -133 -362 -259 0 -254
283 -338 435 -128 l40 54 23 -43 c28 -52 132 -60 193 -16 49 36 -18 498 -85
588 -97 130 -284 179 -451 117z m276 -488 c-30 -118 -129 -164 -173 -81 -29
54 53 136 135 136 46 0 50 -6 38 -55z"/>
</g>
</svg>
