<?xml version="1.0" standalone="no"?>
<!DOCTYPE svg PUBLIC "-//W3C//DTD SVG 20010904//EN"
 "http://www.w3.org/TR/2001/REC-SVG-20010904/DTD/svg10.dtd">
<svg version="1.0" xmlns="http://www.w3.org/2000/svg"
 width="300.000000pt" height="50.000000pt" viewBox="0 0 300.000000 50.000000"
 preserveAspectRatio="xMidYMid meet">
<metadata>
Created by potrace 1.10, written by Peter Selinger 2001-2011
</metadata>
<g transform="translate(0.000000,50.000000) scale(0.100000,-0.100000)"
fill="#fbfb52" stroke="none">
<path d="M2002 353 c4 -39 28 -42 28 -4 0 21 -5 31 -16 31 -11 0 -14 -8 -12
-27z"/>
<path d="M2232 278 c3 -95 4 -103 23 -103 13 0 20 7 20 19 0 29 20 30 35 1 7
-14 19 -25 26 -25 24 0 25 20 4 51 -21 29 -21 31 -4 50 13 15 15 22 6 31 -9 9
-19 5 -42 -17 l-30 -29 0 62 c0 56 -2 62 -20 62 -20 0 -21 -5 -18 -102z"/>
<path d="M1838 363 c-2 -4 -2 -52 0 -105 3 -88 5 -98 22 -98 15 0 19 9 22 48
2 34 7 47 18 47 10 0 17 -14 20 -45 4 -37 9 -45 25 -45 18 0 20 6 17 50 -4 59
-31 92 -62 75 -17 -9 -19 -5 -22 32 -2 30 -8 44 -20 46 -9 2 -18 -1 -20 -5z"/>
<path d="M2395 360 c-4 -7 -3 -16 3 -22 14 -14 45 -2 40 15 -6 16 -34 21 -43
7z"/>
<path d="M1682 344 c-19 -13 -22 -24 -22 -80 0 -78 10 -100 49 -109 45 -10 91
19 91 58 0 25 -40 22 -47 -3 -7 -28 -41 -26 -49 3 -3 13 -4 41 -2 63 2 31 7
40 24 42 15 2 23 -4 27 -18 4 -14 12 -21 24 -18 47 9 7 78 -45 78 -15 0 -38
-7 -50 -16z"/>
<path d="M1114 335 c-4 -9 -4 -32 -1 -52 5 -28 3 -33 -5 -25 -31 31 -78 -4
-78 -56 0 -39 34 -77 58 -66 9 3 30 6 45 5 l28 -1 -3 102 c-3 89 -5 103 -21
106 -9 2 -20 -4 -23 -13z m1 -144 c-3 -11 -12 -21 -20 -21 -19 0 -29 38 -14
56 11 13 14 13 27 1 9 -9 11 -23 7 -36z"/>
<path d="M942 238 c3 -95 5 -103 23 -103 26 0 29 19 20 122 -6 73 -9 83 -26
83 -18 0 -20 -7 -17 -102z"/>
<path d="M1205 330 c-4 -7 -3 -16 3 -22 14 -14 45 -2 40 15 -6 16 -34 21 -43
7z"/>
<path d="M1300 330 c-10 -6 -12 -27 -7 -85 3 -43 10 -82 15 -87 17 -17 66 -14
70 5 2 12 -3 17 -17 17 -17 0 -21 6 -21 35 0 28 4 35 20 35 11 0 20 7 20 15 0
9 -9 15 -24 15 -19 0 -22 4 -19 24 5 25 -15 40 -37 26z"/>
<path d="M564 315 c-4 -8 -2 -55 2 -103 7 -67 12 -87 24 -87 12 0 15 14 15 63
0 34 1 62 2 62 1 0 9 -13 18 -30 19 -37 30 -38 49 -2 15 27 15 26 16 -31 0
-55 1 -58 23 -55 15 2 22 10 21 26 0 12 -1 56 -2 97 -2 68 -4 75 -22 75 -13 0
-28 -13 -41 -35 l-21 -35 -22 32 c-24 37 -53 47 -62 23z m40 -40 c3 -8 1 -15
-4 -15 -6 0 -10 7 -10 15 0 8 2 15 4 15 2 0 6 -7 10 -15z m106 -10 c0 -8 -2
-15 -4 -15 -2 0 -6 7 -10 15 -3 8 -1 15 4 15 6 0 10 -7 10 -15z"/>
<path d="M2395 298 c-2 -7 -1 -38 3 -68 5 -39 11 -55 22 -55 12 0 15 14 15 65
0 54 -3 65 -18 68 -9 2 -19 -2 -22 -10z"/>
<path d="M2083 293 c-27 -10 -13 -33 18 -31 19 2 34 -2 36 -9 3 -8 -4 -13 -19
-13 -34 0 -50 -14 -46 -40 5 -35 33 -48 56 -26 14 12 21 14 24 5 3 -8 11 -10
22 -6 14 6 16 14 10 54 -3 27 -11 54 -16 61 -10 12 -61 15 -85 5z m57 -83 c0
-5 -7 -10 -15 -10 -8 0 -15 5 -15 10 0 6 7 10 15 10 8 0 15 -4 15 -10z"/>
<path d="M1426 258 c-9 -12 -16 -33 -16 -45 0 -53 78 -84 113 -45 22 25 21 75
-1 95 -27 25 -78 22 -96 -5z m69 -28 c7 -22 -11 -53 -26 -44 -5 3 -9 15 -9 28
0 39 24 50 35 16z"/>
<path d="M1207 208 c7 -72 7 -72 28 -65 11 5 15 22 15 67 0 57 -1 60 -25 60
-24 0 -25 -1 -18 -62z"/>
<path d="M791 251 c-22 -14 -3 -31 29 -24 22 4 30 2 30 -9 0 -8 -12 -15 -27
-16 -35 -3 -46 -14 -41 -43 3 -27 40 -38 63 -19 10 8 14 8 17 -1 2 -7 11 -10
21 -6 22 8 23 74 1 105 -16 23 -66 30 -93 13z m63 -76 c-4 -8 -12 -15 -20 -15
-17 0 -18 17 -1 23 22 9 27 7 21 -8z"/>
</g>
</svg>
