<?xml version="1.0" standalone="no"?>
<!DOCTYPE svg PUBLIC "-//W3C//DTD SVG 20010904//EN"
 "http://www.w3.org/TR/2001/REC-SVG-20010904/DTD/svg10.dtd">
<svg version="1.0" xmlns="http://www.w3.org/2000/svg"
 width="300.000000pt" height="50.000000pt" viewBox="0 0 300.000000 50.000000"
 preserveAspectRatio="xMidYMid meet">
<metadata>
Created by potrace 1.10, written by Peter Selinger 2001-2011
</metadata>
<g transform="translate(0.000000,50.000000) scale(0.100000,-0.100000)"
fill="#ffffff" stroke="none">
<path d="M2002 353 c4 -39 28 -42 28 -4 0 21 -5 31 -16 31 -11 0 -14 -8 -12
-27z"/>
<path d="M2232 278 c3 -95 4 -103 23 -103 13 0 20 7 20 19 0 29 20 30 35 1 7
-14 19 -25 26 -25 24 0 25 20 4 51 -21 29 -21 31 -4 50 13 15 15 22 6 31 -9 9
-19 5 -42 -17 l-30 -29 0 62 c0 56 -2 62 -20 62 -20 0 -21 -5 -18 -102z"/>
<path d="M1838 363 c-2 -4 -2 -52 0 -105 3 -88 5 -98 22 -98 15 0 19 9 22 48
2 34 7 47 18 47 10 0 17 -14 20 -45 4 -37 9 -45 25 -45 18 0 20 6 17 50 -4 59
-31 92 -62 75 -17 -9 -19 -5 -22 32 -2 30 -8 44 -20 46 -9 2 -18 -1 -20 -5z"/>
<path d="M2395 360 c-4 -7 -3 -16 3 -22 14 -14 45 -2 40 15 -6 16 -34 21 -43
7z"/>
<path d="M1682 344 c-19 -13 -22 -24 -22 -83 0 -76 11 -98 55 -107 36 -7 85
26 85 57 0 26 -40 26 -47 -1 -7 -28 -41 -26 -49 3 -3 13 -4 41 -2 63 2 31 7
40 24 42 15 2 23 -4 27 -18 4 -14 12 -21 24 -18 47 9 7 78 -45 78 -15 0 -38
-7 -50 -16z"/>
<path d="M1114 335 c-4 -9 -4 -32 -1 -52 5 -28 3 -33 -5 -25 -31 31 -78 -4
-78 -56 0 -39 34 -77 58 -66 9 3 30 6 45 5 l28 -1 -3 102 c-3 89 -5 103 -21
106 -9 2 -20 -4 -23 -13z m4 -139 c-4 -28 -35 -33 -43 -6 -9 29 12 55 32 38 8
-6 13 -21 11 -32z"/>
<path d="M940 240 c0 -82 3 -102 16 -107 30 -11 37 12 29 111 -6 85 -9 96 -26
96 -17 0 -19 -8 -19 -100z"/>
<path d="M1205 330 c-4 -7 -3 -16 3 -22 14 -14 45 -2 40 15 -6 16 -34 21 -43
7z"/>
<path d="M1300 330 c-10 -6 -12 -27 -7 -87 7 -83 22 -107 62 -101 28 4 33 38
6 38 -17 0 -21 6 -21 35 0 28 4 35 20 35 11 0 20 7 20 15 0 9 -9 15 -24 15
-19 0 -22 4 -19 24 5 25 -15 40 -37 26z"/>
<path d="M564 315 c-4 -8 -2 -55 2 -103 7 -67 12 -87 24 -87 12 0 15 12 14 55
-1 30 -5 68 -9 84 -6 21 -5 27 4 22 6 -4 10 -13 9 -19 -3 -16 30 -77 42 -77 5
0 16 12 24 28 15 27 15 26 16 -31 0 -55 1 -58 23 -55 13 2 22 10 21 21 0 9 -1
53 -2 97 -2 73 -4 80 -22 80 -13 0 -28 -13 -41 -35 l-21 -35 -22 32 c-24 37
-53 47 -62 23z m133 -47 c-3 -8 -6 -5 -6 6 -1 11 2 17 5 13 3 -3 4 -12 1 -19z"/>
<path d="M2397 303 c-3 -4 -2 -35 2 -68 4 -44 10 -60 21 -60 23 0 22 128 -2
133 -9 2 -18 -1 -21 -5z"/>
<path d="M2083 293 c-27 -10 -13 -33 18 -31 19 2 34 -2 36 -9 3 -8 -4 -13 -19
-13 -34 0 -50 -14 -46 -40 5 -35 33 -48 56 -26 14 12 21 14 24 5 2 -7 11 -10
21 -6 14 5 16 15 10 54 -3 26 -10 54 -16 61 -9 12 -60 15 -84 5z m55 -85 c-6
-18 -28 -21 -28 -4 0 9 7 16 16 16 9 0 14 -5 12 -12z"/>
<path d="M1426 258 c-9 -12 -16 -33 -16 -45 0 -53 78 -84 113 -45 22 25 21 75
-1 95 -27 25 -78 22 -96 -5z m72 -38 c4 -23 -15 -43 -30 -34 -10 6 -11 48 -1
58 12 12 28 0 31 -24z"/>
<path d="M1207 208 c6 -72 7 -73 28 -65 11 5 15 22 15 67 0 57 -1 60 -24 60
-23 0 -24 -2 -19 -62z"/>
<path d="M791 251 c-22 -14 -3 -31 29 -24 24 4 30 2 30 -12 0 -10 -3 -16 -6
-12 -3 3 -19 1 -35 -5 -25 -8 -30 -15 -27 -37 3 -29 39 -41 63 -21 10 8 14 8
17 -1 2 -7 11 -10 21 -6 22 8 23 74 1 105 -16 23 -66 30 -93 13z m63 -76 c-4
-8 -12 -15 -20 -15 -17 0 -18 17 -1 23 22 9 27 7 21 -8z"/>
</g>
</svg>
